<svg xmlns="http://www.w3.org/2000/svg" xmlns:xlink="http://www.w3.org/1999/xlink" width="1080" zoomAndPan="magnify" viewBox="0 0 810 809.999993" height="1080" preserveAspectRatio="xMidYMid meet" version="1.0"><defs><clipPath id="40e1d7aa5c"><path d="M 238 442 L 419 442 L 419 698.0625 L 238 698.0625 Z M 238 442 " clip-rule="nonzero"/></clipPath><clipPath id="940529044a"><path d="M 391 442 L 573 442 L 573 698.0625 L 391 698.0625 Z M 391 442 " clip-rule="nonzero"/></clipPath><clipPath id="c144b06d92"><path d="M 196.660156 111.5625 L 613.660156 111.5625 L 613.660156 526 L 196.660156 526 Z M 196.660156 111.5625 " clip-rule="nonzero"/></clipPath></defs><g clip-path="url(#40e1d7aa5c)"><path fill="#dd4e4e" d="M 418.351562 477.683594 L 401.640625 531.246094 L 348.007812 698.0625 L 310.203125 625.191406 L 238.105469 662.941406 L 264.484375 580.410156 L 308.445312 442.566406 L 377.902344 464.519531 Z M 418.351562 477.683594 " fill-opacity="1" fill-rule="nonzero"/></g><g clip-path="url(#940529044a)"><path fill="#dd4e4e" d="M 501.875 442.566406 L 572.210938 662.941406 L 500.117188 625.191406 L 462.3125 698.0625 L 391.96875 477.683594 Z M 501.875 442.566406 " fill-opacity="1" fill-rule="nonzero"/></g><g clip-path="url(#c144b06d92)"><path fill="#fcc153" d="M 613.535156 335.453125 L 583.640625 299.453125 L 605.625 259.066406 L 566.058594 236.234375 L 572.210938 190.582031 L 526.496094 183.554688 L 515.066406 138.785156 L 470.222656 149.316406 L 443.847656 111.5625 L 405.160156 137.023438 L 366.472656 111.5625 L 340.097656 149.316406 L 295.253906 138.785156 L 283.824219 183.554688 L 238.105469 190.582031 L 244.261719 236.234375 L 204.695312 259.066406 L 226.679688 299.453125 L 196.78125 335.453125 L 232.832031 365.300781 L 217.886719 409.207031 L 261.847656 424.125 L 264.484375 470.664062 L 310.203125 468.90625 L 329.546875 511.050781 L 371.746094 492.613281 L 405.160156 525.097656 L 438.574219 492.613281 L 480.773438 511.050781 L 500.117188 468.90625 L 545.835938 470.664062 L 548.472656 424.125 L 592.433594 409.207031 L 577.488281 365.300781 Z M 613.535156 335.453125 " fill-opacity="1" fill-rule="nonzero"/></g><path fill="#eda024" d="M 550.234375 317.894531 C 550.234375 320.265625 550.175781 322.632812 550.058594 325.003906 C 549.945312 327.371094 549.769531 329.734375 549.535156 332.09375 C 549.304688 334.453125 549.011719 336.804688 548.664062 339.152344 C 548.316406 341.496094 547.910156 343.832031 547.445312 346.15625 C 546.984375 348.480469 546.464844 350.792969 545.886719 353.09375 C 545.308594 355.394531 544.675781 357.679688 543.988281 359.949219 C 543.296875 362.214844 542.554688 364.46875 541.753906 366.699219 C 540.953125 368.933594 540.101562 371.144531 539.191406 373.332031 C 538.28125 375.523438 537.320312 377.691406 536.304688 379.835938 C 535.289062 381.976562 534.222656 384.09375 533.105469 386.1875 C 531.984375 388.277344 530.816406 390.339844 529.59375 392.371094 C 528.375 394.40625 527.105469 396.410156 525.785156 398.378906 C 524.464844 400.351562 523.097656 402.289062 521.683594 404.195312 C 520.269531 406.097656 518.808594 407.964844 517.304688 409.800781 C 515.796875 411.632812 514.246094 413.425781 512.652344 415.183594 C 511.058594 416.941406 509.421875 418.65625 507.742188 420.332031 C 506.0625 422.007812 504.34375 423.644531 502.585938 425.234375 C 500.828125 426.828125 499.03125 428.375 497.195312 429.878906 C 495.359375 431.386719 493.488281 432.84375 491.582031 434.253906 C 489.671875 435.667969 487.734375 437.03125 485.757812 438.351562 C 483.785156 439.667969 481.78125 440.933594 479.742188 442.152344 C 477.707031 443.371094 475.640625 444.542969 473.546875 445.660156 C 471.453125 446.777344 469.332031 447.84375 467.1875 448.855469 C 465.039062 449.871094 462.871094 450.828125 460.675781 451.738281 C 458.484375 452.644531 456.269531 453.496094 454.035156 454.296875 C 451.796875 455.09375 449.542969 455.839844 447.273438 456.527344 C 445 457.214844 442.714844 457.847656 440.410156 458.421875 C 438.105469 459 435.792969 459.519531 433.460938 459.980469 C 431.132812 460.445312 428.796875 460.847656 426.445312 461.195312 C 424.097656 461.542969 421.742188 461.835938 419.378906 462.066406 C 417.015625 462.300781 414.648438 462.472656 412.277344 462.589844 C 409.90625 462.707031 407.535156 462.765625 405.160156 462.765625 C 402.785156 462.765625 400.414062 462.707031 398.042969 462.589844 C 395.667969 462.472656 393.304688 462.300781 390.941406 462.066406 C 388.578125 461.835938 386.222656 461.542969 383.871094 461.195312 C 381.523438 460.847656 379.1875 460.445312 376.855469 459.980469 C 374.527344 459.519531 372.210938 459 369.910156 458.421875 C 367.605469 457.847656 365.320312 457.214844 363.046875 456.527344 C 360.773438 455.839844 358.519531 455.09375 356.285156 454.296875 C 354.050781 453.496094 351.835938 452.644531 349.640625 451.738281 C 347.449219 450.828125 345.277344 449.871094 343.132812 448.855469 C 340.984375 447.84375 338.867188 446.777344 336.773438 445.660156 C 334.679688 444.542969 332.613281 443.371094 330.578125 442.152344 C 328.539062 440.933594 326.535156 439.667969 324.558594 438.351562 C 322.585938 437.03125 320.644531 435.667969 318.738281 434.253906 C 316.832031 432.84375 314.960938 431.386719 313.125 429.878906 C 311.289062 428.375 309.492188 426.828125 307.734375 425.234375 C 305.972656 423.644531 304.253906 422.007812 302.578125 420.332031 C 300.898438 418.65625 299.261719 416.941406 297.667969 415.183594 C 296.070312 413.425781 294.523438 411.632812 293.015625 409.800781 C 291.507812 407.964844 290.050781 406.097656 288.632812 404.195312 C 287.21875 402.289062 285.851562 400.351562 284.535156 398.378906 C 283.214844 396.410156 281.945312 394.40625 280.726562 392.371094 C 279.503906 390.339844 278.335938 388.277344 277.214844 386.1875 C 276.097656 384.09375 275.027344 381.976562 274.011719 379.835938 C 273 377.691406 272.035156 375.523438 271.128906 373.332031 C 270.21875 371.144531 269.367188 368.933594 268.566406 366.699219 C 267.765625 364.46875 267.019531 362.214844 266.332031 359.949219 C 265.640625 357.679688 265.007812 355.394531 264.433594 353.09375 C 263.855469 350.792969 263.335938 348.480469 262.871094 346.15625 C 262.410156 343.832031 262.003906 341.496094 261.65625 339.152344 C 261.308594 336.804688 261.015625 334.453125 260.785156 332.09375 C 260.550781 329.734375 260.375 327.371094 260.257812 325.003906 C 260.144531 322.632812 260.085938 320.265625 260.085938 317.894531 C 260.085938 315.523438 260.144531 313.152344 260.257812 310.785156 C 260.375 308.417969 260.550781 306.054688 260.785156 303.695312 C 261.015625 301.335938 261.308594 298.980469 261.65625 296.636719 C 262.003906 294.292969 262.410156 291.957031 262.871094 289.632812 C 263.335938 287.304688 263.855469 284.992188 264.433594 282.691406 C 265.007812 280.394531 265.640625 278.109375 266.332031 275.839844 C 267.019531 273.570312 267.765625 271.320312 268.566406 269.089844 C 269.367188 266.855469 270.21875 264.644531 271.128906 262.453125 C 272.035156 260.265625 273 258.097656 274.011719 255.953125 C 275.027344 253.808594 276.097656 251.691406 277.214844 249.601562 C 278.335938 247.511719 279.503906 245.449219 280.726562 243.414062 C 281.945312 241.382812 283.214844 239.378906 284.535156 237.40625 C 285.851562 235.4375 287.21875 233.5 288.632812 231.59375 C 290.050781 229.691406 291.507812 227.820312 293.015625 225.988281 C 294.523438 224.15625 296.070312 222.359375 297.667969 220.605469 C 299.261719 218.847656 300.898438 217.132812 302.578125 215.453125 C 304.253906 213.777344 305.972656 212.144531 307.734375 210.550781 C 309.492188 208.960938 311.289062 207.410156 313.125 205.90625 C 314.960938 204.402344 316.832031 202.945312 318.738281 201.53125 C 320.644531 200.121094 322.585938 198.753906 324.558594 197.4375 C 326.535156 196.121094 328.539062 194.851562 330.578125 193.632812 C 332.613281 192.414062 334.679688 191.246094 336.773438 190.128906 C 338.867188 189.011719 340.984375 187.945312 343.132812 186.933594 C 345.277344 185.917969 347.449219 184.957031 349.640625 184.050781 C 351.835938 183.144531 354.050781 182.289062 356.285156 181.492188 C 358.519531 180.691406 360.773438 179.949219 363.046875 179.261719 C 365.320312 178.574219 367.605469 177.941406 369.910156 177.363281 C 372.210938 176.789062 374.527344 176.269531 376.855469 175.808594 C 379.1875 175.34375 381.523438 174.9375 383.871094 174.589844 C 386.222656 174.242188 388.578125 173.953125 390.941406 173.71875 C 393.304688 173.488281 395.667969 173.3125 398.042969 173.199219 C 400.414062 173.082031 402.785156 173.023438 405.160156 173.023438 C 407.535156 173.023438 409.90625 173.082031 412.277344 173.199219 C 414.648438 173.3125 417.015625 173.488281 419.378906 173.71875 C 421.742188 173.953125 424.097656 174.242188 426.445312 174.589844 C 428.796875 174.9375 431.132812 175.34375 433.460938 175.808594 C 435.792969 176.269531 438.105469 176.789062 440.410156 177.363281 C 442.714844 177.941406 445 178.574219 447.273438 179.261719 C 449.542969 179.949219 451.796875 180.691406 454.035156 181.492188 C 456.269531 182.289062 458.484375 183.144531 460.675781 184.050781 C 462.871094 184.957031 465.039062 185.917969 467.1875 186.933594 C 469.332031 187.945312 471.453125 189.011719 473.546875 190.128906 C 475.640625 191.246094 477.707031 192.414062 479.742188 193.632812 C 481.78125 194.851562 483.785156 196.121094 485.757812 197.4375 C 487.734375 198.753906 489.671875 200.121094 491.582031 201.53125 C 493.488281 202.945312 495.359375 204.402344 497.195312 205.90625 C 499.03125 207.410156 500.828125 208.960938 502.585938 210.550781 C 504.34375 212.144531 506.0625 213.777344 507.742188 215.453125 C 509.421875 217.132812 511.058594 218.847656 512.652344 220.605469 C 514.246094 222.359375 515.796875 224.15625 517.304688 225.988281 C 518.808594 227.820312 520.269531 229.691406 521.683594 231.59375 C 523.097656 233.5 524.464844 235.4375 525.785156 237.40625 C 527.105469 239.378906 528.375 241.382812 529.59375 243.414062 C 530.816406 245.449219 531.984375 247.511719 533.105469 249.601562 C 534.222656 251.691406 535.289062 253.808594 536.304688 255.953125 C 537.320312 258.097656 538.28125 260.265625 539.191406 262.453125 C 540.101562 264.644531 540.953125 266.855469 541.753906 269.089844 C 542.554688 271.320312 543.296875 273.570312 543.988281 275.839844 C 544.675781 278.109375 545.308594 280.394531 545.886719 282.691406 C 546.464844 284.992188 546.984375 287.304688 547.445312 289.632812 C 547.910156 291.957031 548.316406 294.292969 548.664062 296.636719 C 549.011719 298.980469 549.304688 301.335938 549.535156 303.695312 C 549.769531 306.054688 549.945312 308.417969 550.058594 310.785156 C 550.175781 313.152344 550.234375 315.523438 550.234375 317.894531 Z M 550.234375 317.894531 " fill-opacity="1" fill-rule="nonzero"/><path fill="#f7f7f7" d="M 379.664062 387.253906 L 318.117188 325.792969 C 311.964844 319.648438 311.964844 309.988281 318.117188 303.839844 C 324.273438 297.695312 333.945312 297.695312 340.101562 303.839844 L 380.546875 344.226562 L 471.105469 253.796875 C 477.257812 247.648438 486.933594 247.648438 493.089844 253.796875 C 499.242188 259.941406 499.242188 269.601562 493.089844 275.75 Z M 379.664062 387.253906 " fill-opacity="1" fill-rule="nonzero"/></svg>