<svg xmlns="http://www.w3.org/2000/svg" xmlns:xlink="http://www.w3.org/1999/xlink" width="1080" zoomAndPan="magnify" viewBox="0 0 810 809.999993" height="1080" preserveAspectRatio="xMidYMid meet" version="1.0"><defs><clipPath id="b3bd4e0ff2"><path d="M 246 537 L 596 537 L 596 721.5 L 246 721.5 Z M 246 537 " clip-rule="nonzero"/></clipPath></defs><path fill="#916658" d="M 324.3125 379.28125 L 314.050781 376.46875 C 314.625 374.375 315.179688 371.9375 315.742188 369.535156 C 316.265625 367.246094 316.796875 364.957031 317.316406 362.96875 C 318.464844 358.605469 318.679688 354.914062 317.945312 351.667969 C 317.074219 347.902344 314.636719 344.285156 311.253906 341.765625 C 307.714844 339.113281 300.429688 337.550781 295.699219 338.433594 C 293.285156 338.871094 290.988281 339.691406 288.851562 340.847656 C 285.011719 342.957031 281.652344 346.191406 279.164062 350.191406 C 277.386719 353.054688 275.121094 356.0625 272.878906 359.03125 C 271.324219 361.085938 269.804688 363.117188 268.496094 365.042969 L 259.691406 359.0625 C 261.105469 357 262.734375 354.828125 264.390625 352.628906 C 266.433594 349.914062 268.519531 347.167969 270.144531 344.5625 C 273.589844 339.019531 278.300781 334.507812 283.746094 331.519531 C 286.871094 329.816406 290.242188 328.625 293.761719 327.964844 C 301.460938 326.558594 311.671875 328.835938 317.59375 333.230469 C 323.046875 337.304688 326.84375 343.007812 328.289062 349.296875 C 329.417969 354.277344 329.195312 359.640625 327.589844 365.691406 C 327.078125 367.597656 326.589844 369.757812 326.078125 371.925781 C 325.496094 374.480469 324.898438 377.054688 324.292969 379.28125 Z M 324.3125 379.28125 " fill-opacity="1" fill-rule="nonzero"/><path fill="#fedab6" d="M 300.472656 310.769531 C 297.664062 314.292969 295.570312 318.390625 294.390625 322.742188 C 293.453125 326.210938 293.136719 330.0625 294.761719 333.261719 C 296.71875 337.105469 301.152344 339.191406 305.460938 339.421875 C 312.628906 339.828125 319.835938 335.496094 322.847656 328.984375 C 325.113281 324.101562 324.910156 318.207031 322.582031 313.378906 L 313.796875 307.035156 Z M 300.472656 310.769531 " fill-opacity="1" fill-rule="nonzero"/><path fill="#916658" d="M 297.144531 574.429688 C 295.804688 573.023438 294.761719 571.417969 294.230469 569.515625 C 292.878906 564.714844 295.273438 559.746094 297.582031 555.34375 L 306.851562 537.660156 L 327.472656 537.660156 L 329.109375 549.160156 C 329.269531 554.128906 331.246094 559.257812 334.289062 563.269531 C 335.914062 565.417969 337.777344 567.332031 339.796875 569.109375 L 297.144531 574.441406 Z M 297.144531 574.429688 " fill-opacity="1" fill-rule="nonzero"/><path fill="#916658" d="M 460.917969 563.789062 C 458.621094 563.472656 456.417969 562.832031 454.546875 561.492188 C 448.996094 557.480469 448.984375 549.109375 451.269531 542.648438 C 452.707031 538.617188 454.8125 534.777344 456.363281 530.808594 L 472.242188 519.679688 L 487.382812 530.507812 C 490.445312 534.691406 494.539062 538.128906 499.167969 540.457031 L 460.894531 563.789062 Z M 460.917969 563.789062 " fill-opacity="1" fill-rule="nonzero"/><path fill="#4c4c4c" d="M 401.910156 388.226562 C 386.085938 449.289062 364.277344 496.132812 335.488281 552.246094 C 323.015625 546.375 315.464844 541.671875 302.992188 535.796875 C 322.507812 503.007812 334.777344 484.183594 346.707031 447.9375 C 354.003906 425.761719 353.949219 403.15625 352.472656 380.246094 L 352.003906 373.503906 C 350.695312 355.839844 348.890625 338.007812 349.28125 320.082031 L 388.777344 307.027344 L 401.917969 388.214844 Z M 401.910156 388.226562 " fill-opacity="1" fill-rule="nonzero"/><path fill="#5b5b5b" d="M 420.835938 318.933594 C 438.925781 340.914062 455.589844 365.109375 473.101562 387.972656 C 481.9375 399.503906 486.90625 413.613281 487.617188 428.136719 C 489.5 466.777344 491.710938 491.089844 493.808594 530.667969 C 478.601562 530.042969 464.988281 531.457031 449.78125 530.828125 C 447.539062 490.570312 447.136719 465.703125 444.890625 425.453125 C 421.527344 404.953125 398.15625 385.195312 374.792969 364.691406 C 366.796875 357.679688 358.535156 350.285156 354.558594 340.421875 C 352.152344 334.453125 351.609375 327.804688 352.78125 321.476562 L 378.675781 297.066406 L 420.835938 318.921875 Z M 420.835938 318.933594 " fill-opacity="1" fill-rule="nonzero"/><path fill="#006bdb" d="M 433.128906 229.910156 C 453.875 229.792969 474.613281 228.335938 495.167969 225.546875 C 507.054688 223.929688 516.796875 215.34375 520.722656 204.003906 C 527.855469 183.375 533.300781 162.636719 537.382812 141.070312 L 529.417969 129.378906 L 514.597656 141.761719 C 506.640625 158.359375 496.253906 180.554688 487.585938 196.683594 C 466.691406 197.460938 449.25 192.628906 428.355469 193.40625 L 420.125 218.578125 L 433.121094 229.921875 Z M 433.128906 229.910156 " fill-opacity="1" fill-rule="nonzero"/><path fill="#d7e0ef" d="M 385.566406 313.941406 C 397.316406 315.613281 409.011719 317.304688 420.847656 318.933594 C 435.492188 276.382812 437.605469 226.582031 425.886719 183.140625 L 419.414062 167.53125 L 400.632812 167.53125 C 396.242188 169.105469 391.882812 170.765625 387.574219 172.519531 L 385.566406 313.929688 Z M 385.566406 313.941406 " fill-opacity="1" fill-rule="nonzero"/><path fill="#fedab6" d="M 462.042969 156.222656 C 461.40625 160.902344 460.128906 165.796875 456.515625 168.667969 C 451.730469 172.5 444.710938 171.328125 439.285156 168.5625 C 437.371094 167.605469 435.457031 166.542969 433.542969 165.476562 C 430.992188 171.328125 428.441406 177.289062 425.886719 183.140625 C 417.699219 177.394531 409.726562 171.753906 400.578125 167.5 C 401.003906 163.136719 401.429688 159.308594 401.75 154.839844 L 395.902344 118.34375 L 454.917969 102.066406 C 462.148438 118.984375 464.703125 138.027344 462.042969 156.222656 Z M 462.042969 156.222656 " fill-opacity="1" fill-rule="nonzero"/><path fill="#383838" d="M 401.792969 154.890625 C 408.011719 152.113281 413.710938 148.167969 418.496094 143.328125 C 415.851562 142.039062 412.339844 140.792969 410.566406 138.453125 C 408.789062 136.113281 407.789062 133.082031 408.289062 130.175781 C 408.789062 127.269531 410.9375 124.613281 413.789062 123.910156 C 416.09375 123.34375 418.574219 124.089844 420.507812 125.460938 C 422.441406 126.835938 423.890625 128.78125 425.113281 130.824219 C 423.167969 123.429688 428.757812 113.75 435.382812 109.929688 C 440.339844 107.066406 446.402344 106.769531 451.527344 104.203125 C 459.042969 100.449219 463.636719 91.566406 462.363281 83.253906 C 453.792969 84.574219 443.625 84.457031 435.035156 83.351562 C 426.441406 82.246094 417.710938 81.117188 409.128906 82.328125 C 400.546875 83.542969 391.964844 87.425781 386.96875 94.523438 C 383.195312 99.886719 381.789062 106.597656 381.640625 113.164062 C 381.289062 129.464844 389.351562 144.378906 401.78125 154.902344 Z M 401.792969 154.890625 " fill-opacity="1" fill-rule="nonzero"/><path fill="#006bdb" d="M 401.644531 250.382812 C 399.730469 280.597656 391.753906 308.046875 374.3125 332.730469 C 363.042969 326.027344 351.558594 319.75 338.691406 316.984375 C 354.746094 291.023438 361.980469 259.851562 359.214844 229.632812 C 353.898438 232.613281 348.6875 235.699219 343.050781 238.679688 C 338.585938 264.53125 334.226562 289.109375 324.761719 313.6875 C 315.507812 312.304688 306.152344 311.664062 297.007812 310.28125 C 301.046875 288.578125 304.238281 266.660156 307.851562 244.847656 C 310.832031 226.867188 320.933594 210.800781 335.820312 200.375 C 351.875 189.097656 369.316406 179.949219 387.605469 172.5 L 387.714844 172.820312 C 398.453125 197.078125 403.238281 223.890625 401.644531 250.382812 Z M 401.644531 250.382812 " fill-opacity="1" fill-rule="nonzero"/><path fill="#cccccc" d="M 599.785156 139.082031 C 559.84375 140.527344 519.136719 141.484375 479.195312 142.933594 C 478.1875 132.816406 477.960938 131.773438 476.941406 121.652344 C 518.433594 115.003906 556.632812 108.164062 593.457031 97.789062 C 596.167969 110.960938 597.0625 125.921875 599.773438 139.09375 Z M 599.785156 139.082031 " fill-opacity="1" fill-rule="nonzero"/><path fill="#916658" d="M 319.070312 459.074219 C 328.707031 434.210938 345.15625 399.070312 354.789062 374.203125 C 316.890625 363.894531 281.3125 349.09375 244.601562 336.816406 C 232.34375 364.660156 222.089844 388.589844 210.59375 415.761719 C 246.570312 431.933594 280.683594 450.085938 319.082031 459.074219 Z M 319.070312 459.074219 " fill-opacity="1" fill-rule="nonzero"/><path fill="#bf9377" d="M 267.347656 390.683594 L 259.339844 407.867188 C 265.679688 410.867188 272.039062 414.273438 278.386719 417.273438 C 281.4375 410.433594 285.734375 404.3125 289.019531 397.609375 L 267.359375 390.695312 Z M 267.347656 390.683594 " fill-opacity="1" fill-rule="nonzero"/><g clip-path="url(#b3bd4e0ff2)"><path fill="#8adef9" d="M 521.007812 648.585938 C 539.480469 643.863281 558.515625 638.882812 573.667969 627.308594 C 588.820312 615.730469 599.242188 595.730469 593.839844 577.441406 C 588.992188 560.992188 573.050781 550.257812 556.949219 544.351562 C 539.722656 538.03125 520.773438 535.648438 502.84375 539.574219 C 484.917969 543.5 466.308594 554.078125 456.664062 569.695312 C 446.601562 559.84375 433.714844 551.566406 420.550781 546.597656 C 407.386719 541.628906 392.65625 540.191406 379.089844 543.949219 C 365.519531 547.703125 355.589844 557.078125 349.441406 569.75 C 330.492188 567.972656 310.96875 569.078125 293.179688 575.84375 C 275.386719 582.613281 259.457031 595.484375 251.566406 612.816406 C 241.421875 635.097656 246.527344 663.417969 263.808594 680.761719 C 281.085938 698.105469 309.382812 703.285156 331.671875 693.199219 C 338.246094 710.042969 359.183594 719.691406 377.207031 721.074219 C 387.289062 721.851562 397.804688 719.246094 405.621094 712.816406 C 413.4375 706.390625 416.328125 694.582031 414.742188 684.589844 C 420.433594 697.101562 433.511719 706.667969 446.878906 709.871094 C 460.246094 713.074219 474.324219 711.550781 487.671875 708.285156 C 501.613281 704.882812 515.785156 699.105469 524.558594 687.742188 C 533.332031 676.378906 531.546875 658.324219 520.988281 648.609375 Z M 521.007812 648.585938 " fill-opacity="1" fill-rule="nonzero"/></g><path fill="#f2f2f2" d="M 593.46875 97.789062 C 585.597656 100.003906 577.621094 101.992188 569.617188 103.917969 L 569.617188 103.992188 C 571.339844 115.917969 572.605469 127.910156 573.445312 139.933594 C 582.226562 139.65625 591.0625 139.410156 599.785156 139.09375 C 597.070312 125.921875 596.179688 110.960938 593.46875 97.789062 Z M 593.46875 97.789062 " fill-opacity="1" fill-rule="nonzero"/><path fill="#a37765" d="M 244.59375 336.828125 C 241.433594 344.007812 238.402344 350.914062 235.457031 357.691406 C 240.359375 369.4375 249.207031 379.621094 259.96875 386.546875 C 274.941406 396.1875 293.261719 399.855469 311.042969 398.867188 C 323.824219 398.152344 335.777344 395.675781 347.835938 391.269531 C 350.355469 385.269531 352.75 379.480469 354.789062 374.214844 C 316.890625 363.90625 281.3125 349.105469 244.601562 336.828125 Z M 244.59375 336.828125 " fill-opacity="1" fill-rule="nonzero"/></svg>